# xmcd
#
# Track frame offsets:
#	150
#	16707
#	38397
#	56775
#
# Disc length: 976 seconds
#
# Revision: 0
# Processed by: cddbd v1.5.2PL0 Copyright (c) Steve Scherf et al.
# Submitted via: EasyCDDAExtractor 2010.4.0.0
#
DISCID=2203ce04
DTITLE=B Sides
DYEAR=2001
DGENRE=Euro-House
TTITLE0=Respect Your DJ
TTITLE1=Respect Your DJ (Extended Version)
TTITLE2=Respect Your DJ (Swat Team Remix)
TTITLE3=Respect Your DJ (Instrumental)
EXTD=
EXTT0=
EXTT1=
EXTT2=
EXTT3=
PLAYORDER=
